<?xml version="1.0" encoding="UTF-8" standalone="no"?>
<!DOCTYPE svg PUBLIC "-//W3C//DTD SVG 1.1//EN"
 "http://www.w3.org/Graphics/SVG/1.1/DTD/svg11.dtd">
<!-- Generated by graphviz version 14.0.2 (0)
 -->
<!-- Title: schema Pages: 1 -->
<svg width="181pt" height="578pt"
 viewBox="0.00 0.00 181.00 578.00" xmlns="http://www.w3.org/2000/svg" xmlns:xlink="http://www.w3.org/1999/xlink">
<g id="graph0" class="graph" transform="scale(1 1) rotate(0) translate(4 573.5)">
<title>schema</title>
<polygon fill="white" stroke="none" points="-4,4 -4,-573.5 177,-573.5 177,4 -4,4"/>
<g id="clust1" class="cluster">
<title>cluster_crm</title>
<polygon fill="#e8f5e9" stroke="#e8f5e9" points="8,-8 8,-561.5 165,-561.5 165,-8 8,-8"/>
<text xml:space="preserve" text-anchor="middle" x="86.5" y="-544.2" font-family="Arial Bold" font-size="14.00">crm</text>
</g>
<!-- Company -->
<g id="node1" class="node">
<title>Company</title>
<polygon fill="#4a90e2" stroke="none" points="24.62,-89 24.62,-111.25 123.38,-111.25 123.38,-89 24.62,-89"/>
<text xml:space="preserve" text-anchor="start" x="30.12" y="-96.85" font-family="Arial" font-weight="bold" font-size="12.00" fill="white">Company (crm)</text>
<polygon fill="#e0e0e0" stroke="none" points="24.62,-81 24.62,-89 123.38,-89 123.38,-81 24.62,-81"/>
<text xml:space="preserve" text-anchor="start" x="28.62" y="-68.5" font-family="Arial" font-size="10.00">name </text>
<text xml:space="preserve" text-anchor="start" x="55.62" y="-68.5" font-family="Arial" font-size="10.00" fill="#666666">TEXT</text>
<text xml:space="preserve" text-anchor="start" x="28.62" y="-48.5" font-family="Arial" font-size="10.00">industry </text>
<text xml:space="preserve" text-anchor="start" x="66.12" y="-48.5" font-family="Arial" font-size="10.00" fill="#666666">TEXT</text>
<text xml:space="preserve" text-anchor="start" x="28.62" y="-28.5" font-family="Arial" font-size="10.00">employee_count </text>
<text xml:space="preserve" text-anchor="start" x="102.88" y="-28.5" font-family="Arial" font-size="10.00" fill="#666666">INT</text>
<polygon fill="none" stroke="black" points="23.62,-20 23.62,-112.25 124.38,-112.25 124.38,-20 23.62,-20"/>
</g>
<!-- Contact -->
<g id="node2" class="node">
<title>Contact</title>
<polygon fill="#4a90e2" stroke="none" points="25.25,-305.75 25.25,-328 124.75,-328 124.75,-305.75 25.25,-305.75"/>
<text xml:space="preserve" text-anchor="start" x="36.38" y="-313.6" font-family="Arial" font-weight="bold" font-size="12.00" fill="white">Contact (crm)</text>
<polygon fill="#e0e0e0" stroke="none" points="25.25,-297.75 25.25,-305.75 124.75,-305.75 124.75,-297.75 25.25,-297.75"/>
<text xml:space="preserve" text-anchor="start" x="29.25" y="-285.25" font-family="Arial" font-size="10.00">email </text>
<text xml:space="preserve" text-anchor="start" x="55.5" y="-285.25" font-family="Arial" font-size="10.00" fill="#666666">TEXT</text>
<text xml:space="preserve" text-anchor="start" x="29.25" y="-265.25" font-family="Arial" font-size="10.00">phone </text>
<text xml:space="preserve" text-anchor="start" x="58.5" y="-265.25" font-family="Arial" font-size="10.00" fill="#666666">TEXT</text>
<polygon fill="#ffe0b2" stroke="none" points="25.25,-237.75 25.25,-257.75 124.75,-257.75 124.75,-237.75 25.25,-237.75"/>
<text xml:space="preserve" text-anchor="start" x="29.25" y="-245.25" font-family="Arial" font-size="10.00">company_id </text>
<text xml:space="preserve" text-anchor="start" x="84.75" y="-245.25" font-family="Arial" font-size="10.00" fill="#666666">REF FK</text>
<text xml:space="preserve" text-anchor="start" x="29.25" y="-225.25" font-family="Arial" font-size="10.00">status </text>
<text xml:space="preserve" text-anchor="start" x="59.25" y="-225.25" font-family="Arial" font-size="10.00" fill="#666666">ENUM</text>
<polygon fill="none" stroke="black" points="24.25,-216.75 24.25,-329 125.75,-329 125.75,-216.75 24.25,-216.75"/>
</g>
<!-- Contact&#45;&gt;Company -->
<g id="edge1" class="edge">
<title>Contact&#45;&gt;Company</title>
<path fill="none" stroke="#666666" stroke-dasharray="5,2" d="M74.31,-201.28C74.31,-201.28 74.31,-116.23 74.31,-116.23"/>
<polygon fill="#666666" stroke="#666666" points="70.81,-201.28 74.31,-211.28 77.81,-201.28 70.81,-201.28"/>
<text xml:space="preserve" text-anchor="middle" x="115.62" y="-161.2" font-family="Arial" font-size="9.00">0..1 company_id 1..*</text>
</g>
<!-- Order -->
<g id="node3" class="node">
<title>Order</title>
<polygon fill="#4a90e2" stroke="none" points="29,-502.5 29,-524.75 121,-524.75 121,-502.5 29,-502.5"/>
<text xml:space="preserve" text-anchor="start" x="42.75" y="-510.35" font-family="Arial" font-weight="bold" font-size="12.00" fill="white">Order (crm)</text>
<polygon fill="#e0e0e0" stroke="none" points="29,-494.5 29,-502.5 121,-502.5 121,-494.5 29,-494.5"/>
<text xml:space="preserve" text-anchor="start" x="33" y="-482" font-family="Arial" font-size="10.00">total </text>
<text xml:space="preserve" text-anchor="start" x="54.75" y="-482" font-family="Arial" font-size="10.00" fill="#666666">DECIMAL</text>
<polygon fill="#ffe0b2" stroke="none" points="29,-454.5 29,-474.5 121,-474.5 121,-454.5 29,-454.5"/>
<text xml:space="preserve" text-anchor="start" x="33" y="-462" font-family="Arial" font-size="10.00">contact_id </text>
<text xml:space="preserve" text-anchor="start" x="81" y="-462" font-family="Arial" font-size="10.00" fill="#666666">REF FK</text>
<text xml:space="preserve" text-anchor="start" x="33" y="-442" font-family="Arial" font-size="10.00">status </text>
<text xml:space="preserve" text-anchor="start" x="63" y="-442" font-family="Arial" font-size="10.00" fill="#666666">ENUM</text>
<polygon fill="none" stroke="black" points="28,-433.5 28,-525.75 122,-525.75 122,-433.5 28,-433.5"/>
</g>
<!-- Order&#45;&gt;Contact -->
<g id="edge2" class="edge">
<title>Order&#45;&gt;Contact</title>
<path fill="none" stroke="#666666" stroke-dasharray="5,2" d="M75,-418.06C75,-418.06 75,-332.76 75,-332.76"/>
<polygon fill="#666666" stroke="#666666" points="71.5,-418.06 75,-428.06 78.5,-418.06 71.5,-418.06"/>
<text xml:space="preserve" text-anchor="middle" x="112.5" y="-377.95" font-family="Arial" font-size="9.00">0..1 contact_id 1..*</text>
</g>
</g>
</svg>
